<svg width="100" height="38" viewBox="0 0 100 38" fill="none" xmlns="http://www.w3.org/2000/svg">
<path d="M10.7599 19C10.7599 10.3764 16.5086 3.09881 24.3799 0.77783C22.6741 0.274905 20.8691 0 19 0C8.50661 0 0 8.50668 0 19C0 29.494 8.50668 38.0001 19 38.0001C20.8686 38.0001 22.6741 37.7258 24.38 37.2229C16.508 34.9024 10.7599 27.6242 10.7599 19Z" fill="#EF6A4D"/>
<path d="M24.9404 11.6101C29.5788 11.6101 33.494 14.7023 34.742 18.937C35.0122 18.0196 35.16 17.0483 35.16 16.043C35.16 10.3994 30.5845 5.82458 24.9403 5.82397C19.2962 5.82397 14.7202 10.3988 14.7202 16.0424C14.7202 17.0477 14.8686 18.019 15.1393 18.9364C16.3881 14.7023 20.3026 11.6107 24.9404 11.6101Z" fill="#EE6D52"/>
<path d="M28.5184 22.296C28.5184 25.7457 26.2176 28.6574 23.0684 29.5854C23.7506 29.7867 24.4726 29.8965 25.2213 29.8965C29.4179 29.8965 32.8219 26.4937 32.8219 22.2954C32.8219 18.097 29.4197 14.6936 25.2213 14.6936C24.4744 14.6936 23.7506 14.8028 23.0684 15.0048C26.2176 15.9334 28.5184 18.8451 28.5184 22.296Z" fill="#EF6A4D"/>
<path d="M49.3128 24.144C48.4594 24.144 47.6648 24.0533 46.9288 23.872C46.2034 23.68 45.6061 23.4187 45.1368 23.088C44.9554 22.9493 44.8221 22.8053 44.7368 22.656C44.6621 22.5067 44.6248 22.3147 44.6248 22.08C44.6248 21.76 44.7208 21.4827 44.9128 21.248C45.1048 21.0133 45.3288 20.896 45.5848 20.896C45.7234 20.896 45.8568 20.9173 45.9848 20.96C46.1128 21.0027 46.2728 21.0827 46.4648 21.2C46.9021 21.4453 47.3341 21.6213 47.7608 21.728C48.1981 21.8347 48.6888 21.888 49.2328 21.888C49.8621 21.888 50.3368 21.7973 50.6568 21.616C50.9874 21.424 51.1528 21.1467 51.1528 20.784C51.1528 20.5387 50.9981 20.3307 50.6888 20.16C50.3901 19.9787 49.8141 19.8027 48.9608 19.632C47.9048 19.408 47.0781 19.1413 46.4808 18.832C45.8834 18.5227 45.4621 18.16 45.2168 17.744C44.9821 17.3173 44.8648 16.8053 44.8648 16.208C44.8648 15.5253 45.0674 14.9067 45.4728 14.352C45.8781 13.7973 46.4328 13.3653 47.1368 13.056C47.8514 12.736 48.6514 12.576 49.5368 12.576C50.3154 12.576 51.0088 12.6613 51.6168 12.832C52.2248 13.0027 52.7794 13.2693 53.2808 13.632C53.4728 13.7707 53.6061 13.92 53.6808 14.08C53.7661 14.2293 53.8088 14.416 53.8088 14.64C53.8088 14.96 53.7128 15.2373 53.5208 15.472C53.3394 15.7067 53.1208 15.824 52.8648 15.824C52.7261 15.824 52.5981 15.808 52.4808 15.776C52.3634 15.7333 52.1981 15.648 51.9848 15.52C51.9314 15.488 51.7768 15.408 51.5208 15.28C51.2754 15.1413 50.9821 15.0347 50.6408 14.96C50.3101 14.8747 49.9474 14.832 49.5528 14.832C49.0088 14.832 48.5714 14.9387 48.2408 15.152C47.9101 15.3547 47.7448 15.6267 47.7448 15.968C47.7448 16.1707 47.8034 16.336 47.9208 16.464C48.0381 16.592 48.2568 16.72 48.5768 16.848C48.8968 16.9653 49.3714 17.088 50.0008 17.216C51.0248 17.44 51.8301 17.712 52.4168 18.032C53.0034 18.3413 53.4194 18.704 53.6648 19.12C53.9101 19.536 54.0328 20.0267 54.0328 20.592C54.0328 21.296 53.8354 21.92 53.4408 22.464C53.0461 22.9973 52.4914 23.4133 51.7768 23.712C51.0728 24 50.2514 24.144 49.3128 24.144ZM62.7259 21.696C63.1952 21.696 63.5419 21.7867 63.7659 21.968C64.0006 22.1493 64.1179 22.4373 64.1179 22.832C64.1179 23.2373 64.0059 23.536 63.7819 23.728C63.5579 23.9093 63.2059 24 62.7259 24H56.3259C55.9312 24 55.6166 23.8827 55.3819 23.648C55.1579 23.4133 55.0459 23.12 55.0459 22.768C55.0459 22.416 55.1686 22.0693 55.4139 21.728L60.3419 15.024H56.4699C55.9899 15.024 55.6326 14.9333 55.3979 14.752C55.1739 14.56 55.0619 14.272 55.0619 13.888C55.0619 13.4827 55.1739 13.1893 55.3979 13.008C55.6326 12.816 55.9899 12.72 56.4699 12.72H62.6139C62.9979 12.72 63.3019 12.8373 63.5259 13.072C63.7606 13.296 63.8779 13.584 63.8779 13.936C63.8779 14.2987 63.7552 14.6507 63.5099 14.992L58.5819 21.696H62.7259ZM71.437 21.472C71.6824 21.472 71.8797 21.568 72.029 21.76C72.189 21.952 72.269 22.2027 72.269 22.512C72.269 22.9387 72.061 23.264 71.645 23.488C71.2824 23.6693 70.8504 23.824 70.349 23.952C69.8584 24.0693 69.405 24.128 68.989 24.128C68.1144 24.128 67.3517 23.9627 66.701 23.632C66.0504 23.3013 65.549 22.8267 65.197 22.208C64.845 21.5893 64.669 20.864 64.669 20.032C64.669 19.2427 64.8344 18.5387 65.165 17.92C65.5064 17.2907 65.9757 16.8053 66.573 16.464C67.181 16.112 67.8637 15.936 68.621 15.936C69.357 15.936 70.0024 16.096 70.557 16.416C71.1117 16.736 71.5384 17.1893 71.837 17.776C72.1464 18.3627 72.301 19.0507 72.301 19.84C72.301 20.0853 72.2424 20.2773 72.125 20.416C72.0184 20.544 71.8584 20.608 71.645 20.608H67.421C67.4957 21.12 67.661 21.488 67.917 21.712C68.173 21.936 68.5517 22.048 69.053 22.048C69.3197 22.048 69.565 22.0213 69.789 21.968C70.013 21.904 70.2637 21.8187 70.541 21.712C70.701 21.648 70.8557 21.5947 71.005 21.552C71.165 21.4987 71.309 21.472 71.437 21.472ZM68.701 17.856C68.3277 17.856 68.029 17.9787 67.805 18.224C67.581 18.4587 67.4477 18.8053 67.405 19.264H69.917C69.853 18.3253 69.4477 17.856 68.701 17.856ZM78.8955 15.936C79.8342 15.936 80.5329 16.2187 80.9915 16.784C81.4502 17.3387 81.6795 18.1867 81.6795 19.328V22.784C81.6795 23.1893 81.5515 23.5093 81.2955 23.744C81.0395 23.9787 80.6929 24.096 80.2555 24.096C79.8182 24.096 79.4715 23.9787 79.2155 23.744C78.9595 23.5093 78.8315 23.1893 78.8315 22.784V19.456C78.8315 18.9867 78.7462 18.6453 78.5755 18.432C78.4155 18.2187 78.1702 18.112 77.8395 18.112C77.4129 18.112 77.0715 18.2507 76.8155 18.528C76.5702 18.7947 76.4475 19.1573 76.4475 19.616V22.784C76.4475 23.1893 76.3195 23.5093 76.0635 23.744C75.8075 23.9787 75.4609 24.096 75.0235 24.096C74.5862 24.096 74.2395 23.9787 73.9835 23.744C73.7275 23.5093 73.5995 23.1893 73.5995 22.784V17.248C73.5995 16.8747 73.7329 16.5707 73.9995 16.336C74.2662 16.0907 74.6129 15.968 75.0395 15.968C75.4449 15.968 75.7649 16.08 75.9995 16.304C76.2449 16.528 76.3675 16.8213 76.3675 17.184C76.6449 16.7787 77.0022 16.4693 77.4395 16.256C77.8769 16.0427 78.3622 15.936 78.8955 15.936ZM87.079 24.128C85.799 24.128 84.7857 23.7653 84.039 23.04C83.2924 22.3147 82.919 21.328 82.919 20.08C82.919 19.2587 83.1004 18.5333 83.463 17.904C83.8257 17.2747 84.3324 16.7893 84.983 16.448C85.6444 16.1067 86.3964 15.936 87.239 15.936C87.687 15.936 88.135 15.9947 88.583 16.112C89.031 16.2293 89.4257 16.3947 89.767 16.608C90.0977 16.8107 90.263 17.12 90.263 17.536C90.263 17.8667 90.183 18.1387 90.023 18.352C89.8737 18.5547 89.6764 18.656 89.431 18.656C89.271 18.656 89.1164 18.6347 88.967 18.592C88.8177 18.5387 88.6524 18.464 88.471 18.368C88.2577 18.272 88.0764 18.2027 87.927 18.16C87.7777 18.1067 87.6124 18.08 87.431 18.08C86.375 18.08 85.847 18.7253 85.847 20.016C85.847 20.656 85.9804 21.1467 86.247 21.488C86.5244 21.8187 86.919 21.984 87.431 21.984C87.6124 21.984 87.7777 21.9627 87.927 21.92C88.087 21.8667 88.263 21.792 88.455 21.696C88.6684 21.6 88.839 21.5307 88.967 21.488C89.1057 21.4347 89.255 21.408 89.415 21.408C89.6604 21.408 89.8577 21.5147 90.007 21.728C90.167 21.9307 90.247 22.1973 90.247 22.528C90.247 22.7307 90.2044 22.9173 90.119 23.088C90.0337 23.248 89.9164 23.3707 89.767 23.456C89.031 23.904 88.135 24.128 87.079 24.128ZM96.551 16.768C96.6684 16.5013 96.8284 16.304 97.031 16.176C97.2337 16.048 97.4577 15.984 97.703 15.984C98.055 15.984 98.3697 16.1013 98.647 16.336C98.9244 16.5707 99.063 16.8533 99.063 17.184C99.063 17.3653 99.0204 17.5413 98.935 17.712L94.695 26.208C94.567 26.4747 94.3964 26.672 94.183 26.8C93.9804 26.928 93.7564 26.992 93.511 26.992C93.159 26.992 92.8444 26.8747 92.567 26.64C92.3004 26.416 92.167 26.1387 92.167 25.808C92.167 25.6267 92.215 25.44 92.311 25.248L93.351 23.152L90.631 17.712C90.5457 17.52 90.503 17.3493 90.503 17.2C90.503 16.8587 90.6524 16.5707 90.951 16.336C91.2497 16.0907 91.5857 15.968 91.959 15.968C92.215 15.968 92.4497 16.0373 92.663 16.176C92.887 16.304 93.0577 16.5013 93.175 16.768L94.871 20.448L96.551 16.768Z" fill="#F0F0F0"/>
</svg>
