<svg width="153" height="154" viewBox="0 0 153 154" fill="none" xmlns="http://www.w3.org/2000/svg">
<path d="M2.8 5.6C4.3464 5.6 5.6 4.3464 5.6 2.8C5.6 1.2536 4.3464 0 2.8 0C1.2536 0 0 1.2536 0 2.8C0 4.3464 1.2536 5.6 2.8 5.6Z" fill="#F0F0F0"/>
<path d="M39.7 5.6C41.2464 5.6 42.5 4.3464 42.5 2.8C42.5 1.2536 41.2464 0 39.7 0C38.1536 0 36.9 1.2536 36.9 2.8C36.9 4.3464 38.1536 5.6 39.7 5.6Z" fill="#F0F0F0"/>
<path d="M76.5 5.6C78.0464 5.6 79.3 4.3464 79.3 2.8C79.3 1.2536 78.0464 0 76.5 0C74.9536 0 73.7 1.2536 73.7 2.8C73.7 4.3464 74.9536 5.6 76.5 5.6Z" fill="#F0F0F0"/>
<path d="M113.3 5.6C114.846 5.6 116.1 4.3464 116.1 2.8C116.1 1.2536 114.846 0 113.3 0C111.754 0 110.5 1.2536 110.5 2.8C110.5 4.3464 111.754 5.6 113.3 5.6Z" fill="#F0F0F0"/>
<path d="M2.8 42.1C4.3464 42.1 5.6 40.8464 5.6 39.3C5.6 37.7536 4.3464 36.5 2.8 36.5C1.2536 36.5 0 37.7536 0 39.3C0 40.8464 1.2536 42.1 2.8 42.1Z" fill="#F0F0F0"/>
<path d="M39.7 42.1C41.2464 42.1 42.5 40.8464 42.5 39.3C42.5 37.7536 41.2464 36.5 39.7 36.5C38.1536 36.5 36.9 37.7536 36.9 39.3C36.9 40.8464 38.1536 42.1 39.7 42.1Z" fill="#F0F0F0"/>
<path d="M76.5 42.1C78.0464 42.1 79.3 40.8464 79.3 39.3C79.3 37.7536 78.0464 36.5 76.5 36.5C74.9536 36.5 73.7 37.7536 73.7 39.3C73.7 40.8464 74.9536 42.1 76.5 42.1Z" fill="#F0F0F0"/>
<path d="M113.3 42.1C114.846 42.1 116.1 40.8464 116.1 39.3C116.1 37.7536 114.846 36.5 113.3 36.5C111.754 36.5 110.5 37.7536 110.5 39.3C110.5 40.8464 111.754 42.1 113.3 42.1Z" fill="#F0F0F0"/>
<path d="M5.6 75.9C5.6 77.5 4.3 78.7 2.8 78.7C1.2 78.7 0 77.4 0 75.9C0 74.3 1.3 73 2.8 73C4.4 73 5.6 74.3 5.6 75.9Z" fill="#F0F0F0"/>
<path d="M42.5 75.9C42.5 77.5 41.2 78.7 39.7 78.7C38.1 78.7 36.9 77.4 36.9 75.9C36.9 74.3 38.2 73.1 39.7 73.1C41.2 73 42.5 74.3 42.5 75.9Z" fill="#F0F0F0"/>
<path d="M79.3 75.9C79.3 77.5 78 78.7 76.5 78.7C75 78.7 73.7 77.4 73.7 75.9C73.7 74.3 75 73.1 76.5 73.1C78 73.1 79.3 74.3 79.3 75.9Z" fill="#F0F0F0"/>
<path d="M116.1 75.9C116.1 77.5 114.8 78.7 113.3 78.7C111.7 78.7 110.5 77.4 110.5 75.9C110.5 74.3 111.8 73.1 113.3 73.1C114.9 73 116.1 74.3 116.1 75.9Z" fill="#F0F0F0"/>
<path d="M5.6 112.4C5.6 114 4.3 115.2 2.8 115.2C1.2 115.2 0 113.9 0 112.4C0 110.8 1.3 109.6 2.8 109.6C4.4 109.5 5.6 110.8 5.6 112.4Z" fill="#F0F0F0"/>
<path d="M42.5 112.4C42.5 114 41.2 115.2 39.7 115.2C38.1 115.2 36.9 113.9 36.9 112.4C36.9 110.8 38.2 109.6 39.7 109.6C41.2 109.5 42.5 110.8 42.5 112.4Z" fill="#F0F0F0"/>
<path d="M79.3 112.4C79.3 114 78 115.2 76.5 115.2C75 115.2 73.7 113.9 73.7 112.4C73.7 110.8 75 109.6 76.5 109.6C78 109.6 79.3 110.8 79.3 112.4Z" fill="#F0F0F0"/>
<path d="M116.1 112.4C116.1 114 114.8 115.2 113.3 115.2C111.7 115.2 110.5 113.9 110.5 112.4C110.5 110.8 111.8 109.6 113.3 109.6C114.9 109.5 116.1 110.8 116.1 112.4Z" fill="#F0F0F0"/>
<path d="M2.8 153.3C4.3464 153.3 5.6 152.046 5.6 150.5C5.6 148.954 4.3464 147.7 2.8 147.7C1.2536 147.7 0 148.954 0 150.5C0 152.046 1.2536 153.3 2.8 153.3Z" fill="#F0F0F0"/>
<path d="M39.7 153.3C41.2464 153.3 42.5 152.046 42.5 150.5C42.5 148.954 41.2464 147.7 39.7 147.7C38.1536 147.7 36.9 148.954 36.9 150.5C36.9 152.046 38.1536 153.3 39.7 153.3Z" fill="#F0F0F0"/>
<path d="M76.5 153.3C78.0464 153.3 79.3 152.046 79.3 150.5C79.3 148.954 78.0464 147.7 76.5 147.7C74.9536 147.7 73.7 148.954 73.7 150.5C73.7 152.046 74.9536 153.3 76.5 153.3Z" fill="#F0F0F0"/>
<path d="M113.3 153.3C114.846 153.3 116.1 152.046 116.1 150.5C116.1 148.954 114.846 147.7 113.3 147.7C111.754 147.7 110.5 148.954 110.5 150.5C110.5 152.046 111.754 153.3 113.3 153.3Z" fill="#F0F0F0"/>
<path d="M150.2 5.6C151.746 5.6 153 4.3464 153 2.8C153 1.2536 151.746 0 150.2 0C148.654 0 147.4 1.2536 147.4 2.8C147.4 4.3464 148.654 5.6 150.2 5.6Z" fill="#F0F0F0"/>
<path d="M150.2 42.1C151.746 42.1 153 40.8464 153 39.3C153 37.7536 151.746 36.5 150.2 36.5C148.654 36.5 147.4 37.7536 147.4 39.3C147.4 40.8464 148.654 42.1 150.2 42.1Z" fill="#F0F0F0"/>
<path d="M153 75.9C153 77.5 151.7 78.7 150.2 78.7C148.6 78.7 147.4 77.4 147.4 75.9C147.4 74.3 148.7 73.1 150.2 73.1C151.7 73 153 74.3 153 75.9Z" fill="#F0F0F0"/>
<path d="M153 112.4C153 114 151.7 115.2 150.2 115.2C148.6 115.2 147.4 113.9 147.4 112.4C147.4 110.8 148.7 109.6 150.2 109.6C151.7 109.5 153 110.8 153 112.4Z" fill="#F0F0F0"/>
<path d="M150.2 153.3C151.746 153.3 153 152.046 153 150.5C153 148.954 151.746 147.7 150.2 147.7C148.654 147.7 147.4 148.954 147.4 150.5C147.4 152.046 148.654 153.3 150.2 153.3Z" fill="#F0F0F0"/>
</svg>
